<svg xmlns="http://www.w3.org/2000/svg" xmlns:xlink="http://www.w3.org/1999/xlink" version="1.1" x="0px" y="0px" viewBox="0 0 96 120" style="enable-background:new 0 0 96 96;" xml:space="preserve"><style type="text/css">
	.st0{display:none;}
</style><g><path d="M34.4084473,34.6674576L33.1945801,45.201149c-2.4926758-0.3598633-9.0932617-0.9462891-18.3686523,0.9926758   c-4.9737549,0.9712524-9.2585449,3.2993774-11.6936646,4.8394775l0.5336304-7.5669556   C13.1309204,33.0607071,30.2109375,34.2057266,34.4084473,34.6674576z M2.9547729,53.5499039   c1.7701416-1.2276001,6.6079102-4.2902832,12.2676392-5.3956299c11.2583008-2.3535156,18.559082-0.8291016,18.6323242-0.8125   l1.0795898,0.2338867l1.6835938-14.6108398l-0.9443359-0.1518555c-0.7929688-0.1269531-17.1152344-2.6235371-28.8789063,5.3212891   c1.6508789-1.800293,3.9682617-3.8427734,7.0556641-5.5424805c0.6763306-0.3724365,1.4486694-0.6913471,2.2906494-0.965456   c0.4083862-0.1329346,0.8364868-0.2529297,1.2758179-0.3650513c8.0465088-2.0527954,20.8440552-0.7329712,22.3505249-0.5664673   l13.6391602,5.9975605c-0.1416016,2.2905273-0.5800781,9.7260742-0.652832,15.159668   c-0.0263672,1.9990234-0.4711914,3.3803711-1.2861328,3.9946289c-0.3637085,0.2741699-0.7600708,0.361145-1.0848999,0.3778687   c-18.1546021-11.1728516-36.2634277-7.9205933-46.3145142-1.6771851c-0.4625854,0.2874146-0.8735352,0.5966797-1.2486572,0.9206543   L2.9547729,53.5499039z M2.5320435,59.5440445c0.2640381-1.2938843,1.1094971-2.3769531,2.5917358-3.2974854   c1.9614868-1.2189331,18.4500732-10.7455444,38.9575806-1.1565552c-5.4815063-0.8355103-14.46698-1.6887207-24.7647095-0.6295776   c-6.762207,0.6943359-11.4707031,2.7734375-13.9941406,6.1796875c-0.9411621,1.2699585-1.4296875,2.5389404-1.6774902,3.6346436   c-0.5975342-1.0311279-1.1293335-2.2929077-1.1945801-3.5736694L2.5320435,59.5440445z M24.7185059,79.2978287   c-0.0063477,0.0317383-0.609375,3.2036133-1.284668,5.6518555c-0.3583984,1.2978516-1.3022461,1.4194336-5.1782227,1.3662109   c-0.5742188-0.0073242-1.1899414-0.015625-1.8481445-0.015625c-4.2885742,0-7.1918945-3.3652344-9.7978516-6.8115234   c-0.5927734-0.7836914-0.7446289-1.5410156-0.465332-2.3164063c0.4213867-1.1679688,2.5327148-4.1508789,13.0112305-6.6162109   c2.0249023-0.4765625,4.4868164-0.7695313,7.1743164-0.9282227L24.7185059,79.2978287z M56.7038574,69.0956802   c-2.2207031-0.2763672-26.4580078-3.2041016-38.0063477-0.4868164c-6.2351074,1.4672241-10.6029053,3.3745117-12.8771362,5.5961304   L5.479248,67.2177505l-0.0175781-0.1430664c-0.0048828-0.0258789-0.4819336-2.612793,1.4672852-5.2441406   c2.1757813-2.9355469,6.4121094-4.7460938,12.5917969-5.3808594c16.5136719-1.6962891,29.5673828,1.6186523,29.6640625,1.6435547   c0.0255737,0.0073853,0.2565918,0.0684204,0.5970459,0.1048584c0.0077515,0.0048828,0.0153198,0.0089111,0.0230713,0.0137939   l0.0064697-0.0102539c0.677124,0.067688,1.7939453,0.0270386,2.824585-0.7319336   c1.3691406-1.0078125,2.081543-2.8886719,2.1176758-5.5913086c0.0854492-6.4125977,0.6865234-15.6625977,0.6928711-15.7548828   l0.0454102-0.6987305l-15.0585938-6.6220722l-0.2836914-0.0776367c-0.6291504-0.0742188-12.6369019-1.4642334-21.4691772,0.21698   c0.4364624-0.7508545,0.866333-1.4586182,1.1956787-1.9915161c2.7159424-1.1804199,18.5921631-7.300354,38.4419556,0.9981689   c11.0805664,4.6318378,14.21875,6.1992207,15.1010742,6.7006855l-0.0776367,8.0078125   c-0.0039063,0.0283203-0.027832,0.1137695-0.0693359,0.140625c-0.0742188,0.0463867-0.3300781,0.0878906-0.8266602-0.0566406   c-2.0498047-0.5976563-8.8549805-2.7509766-8.9233398-2.7729492l-1.2094727-0.3823242l-1.1871948,16.7076416   c-0.2327271,0.4101563-0.2975464,1.1162109-0.4104614,2.4031982C60.4538574,61.6738052,59.845459,68.6010513,56.7038574,69.0956802   z M74.9431152,63.6435318c-5.7167969-2.7376099-10.5714111-6.182373-11.8205566-7.2346191l0.1755981-2.4714355   c2.7505493,2.5609741,8.2225342,7.0341797,12.918396,7.0341797c0.0234375,0,0.046875-0.0004883,0.0703125-0.0004883   c4.8588257-0.0463257,10.6486816-1.9373779,13.0855103-2.8162842l0.2909546,1.8289795   C87.5900879,61.3119888,79.7624512,65.9506607,74.9431152,63.6435318z M89.052002,56.1410294   c-2.0684204,0.7580566-8.032959,2.784668-12.784668,2.8301392c-0.0180664,0-0.0361328,0.0004883-0.0546875,0.0004883   c-4.7597046,0-10.982666-5.8869629-12.7294312-7.6385498l0.6449585-9.0758057   c2.0698242,0.6523438,6.1992188,1.9492188,7.7578125,2.4038086c1.0395508,0.3041992,1.8969727,0.2246094,2.5444336-0.2324219   c0.6259766-0.4433594,0.8789063-1.1538086,0.9067383-1.6728516l0.0810547-8.0395508l0.0053711-0.6445313   c-0.0507813-0.7319336-0.081543-1.1738281-16.3339844-7.9687519c-17.1464233-7.1680298-31.1774902-4.1011963-37.2692871-2.0463257   c3.8989868-5.1282349,16.2340088-18.1911011,37.8503418-13.3096304c5.3310547,1.2036133,18.2236328,5.4233389,22.7832031,18.574707   c2.7921753,8.0534077,3.8896484,11.606081,4.3182983,13.1240253l-5.3505249,0.1938477l4.9892578,11.2421875l2.2641602-0.1104736   L89.052002,56.1410294z M88.3588867,51.7842789l-0.6765137,0.0330811l-3.2333984-7.2861328l2.7402954-0.0993652l2.0119019-0.072937   l1.0256348-0.0371704l2.5522461,7.246582l-2.411499,0.1177979L88.3588867,51.7842789z"/></g></svg>